<svg width="18" height="19" viewBox="0 0 18 19" fill="none" xmlns="http://www.w3.org/2000/svg">
<path d="M18 9.53125C18 11.9099 17.0551 14.1911 15.3731 15.8731C13.6911 17.5551 11.4099 18.5 9.03125 18.5C6.65259 18.5 4.37135 17.5551 2.68939 15.8731C1.00742 14.1911 0.0625 11.9099 0.0625 9.53125C0.0625 7.15259 1.00742 4.87135 2.68939 3.18939C4.37135 1.50742 6.65259 0.5625 9.03125 0.5625C11.4099 0.5625 13.6911 1.50742 15.3731 3.18939C17.0551 4.87135 18 7.15259 18 9.53125ZM12.8929 5.22881C12.7486 5.1423 12.5886 5.08507 12.4221 5.0604C12.2556 5.03573 12.0859 5.0441 11.9227 5.08503C11.7595 5.12596 11.6059 5.19865 11.4707 5.29894C11.3356 5.39924 11.2215 5.52518 11.1351 5.66956L8.13694 10.6664L6.73525 9.26475C6.49467 9.02417 6.16836 8.88901 5.82812 8.88901C5.48789 8.88901 5.16158 9.02417 4.921 9.26475C4.68042 9.50533 4.54526 9.83164 4.54526 10.1719C4.54526 10.5121 4.68042 10.8384 4.921 11.079L6.90438 13.0598C7.11082 13.2667 7.36171 13.4237 7.63797 13.519C7.91423 13.6143 8.20858 13.6453 8.49865 13.6097C8.78871 13.5742 9.06683 13.4729 9.31188 13.3137C9.55692 13.1544 9.76242 12.9414 9.91275 12.6908L13.3337 6.98669C13.4202 6.84233 13.4774 6.68235 13.5021 6.51587C13.5268 6.34939 13.5184 6.17969 13.4775 6.01644C13.4365 5.8532 13.3639 5.69962 13.2636 5.56448C13.1633 5.42934 13.0373 5.31527 12.8929 5.22881Z" fill="white"/>
</svg>
