<svg width="40" height="40" viewBox="0 0 40 40" fill="none" xmlns="http://www.w3.org/2000/svg">
<path d="M10 0.5H30C35.2467 0.5 39.5 4.75329 39.5 10V30C39.5 35.2467 35.2467 39.5 30 39.5H10C4.75329 39.5 0.5 35.2467 0.5 30V10C0.5 4.75329 4.75329 0.5 10 0.5Z" fill="url(#paint0_linear_48008_5262)"/>
<mask id="mask0_48008_5262" style="mask-type:alpha" maskUnits="userSpaceOnUse" x="4" y="4" width="32" height="32">
<rect x="4" y="4" width="32" height="32" fill="#D9D9D9"/>
</mask>
<g mask="url(#mask0_48008_5262)">
<path d="M13.332 32C12.5987 32 11.9709 31.7389 11.4487 31.2167C10.9265 30.6944 10.6654 30.0667 10.6654 29.3333V12H9.33203V9.33333H15.9987V8H23.9987V9.33333H30.6654V12H29.332V29.3333C29.332 30.0667 29.0709 30.6944 28.5487 31.2167C28.0265 31.7389 27.3987 32 26.6654 32H13.332ZM26.6654 12H13.332V29.3333H26.6654V12ZM15.9987 26.6667H18.6654V14.6667H15.9987V26.6667ZM21.332 26.6667H23.9987V14.6667H21.332V26.6667Z" fill="#2A3647"/>
</g>
<path d="M10 0.5H30C35.2467 0.5 39.5 4.75329 39.5 10V30C39.5 35.2467 35.2467 39.5 30 39.5H10C4.75329 39.5 0.5 35.2467 0.5 30V10C0.5 4.75329 4.75329 0.5 10 0.5Z" stroke="#2A3647"/>
<defs>
<linearGradient id="paint0_linear_48008_5262" x1="20" y1="0" x2="20" y2="40" gradientUnits="userSpaceOnUse">
<stop stop-color="#F9F9F9"/>
<stop offset="1" stop-color="#F0F0F0"/>
</linearGradient>
</defs>
</svg>
