<svg width="332" height="21" viewBox="0 0 332 21" fill="none" xmlns="http://www.w3.org/2000/svg">
<path d="M0.849432 16V0.727272H2.69886V8.30398H2.87784L9.73864 0.727272H12.1548L5.74148 7.6179L12.1548 16H9.91761L4.60795 8.90057L2.69886 11.0483V16H0.849432ZM17.6808 16.2685C16.9549 16.2685 16.2962 16.1317 15.7045 15.8583C15.1129 15.5799 14.6431 15.1797 14.2951 14.6577C13.9471 14.1307 13.7731 13.4943 13.7731 12.7486C13.7731 12.0923 13.9023 11.5604 14.1609 11.1527C14.4194 10.7401 14.7649 10.4169 15.1974 10.1832C15.63 9.94957 16.1072 9.77557 16.6293 9.66122C17.1563 9.5419 17.6857 9.44744 18.2177 9.37784C18.9137 9.28835 19.478 9.22124 19.9105 9.17649C20.348 9.12678 20.6662 9.04474 20.8651 8.9304C21.0689 8.81605 21.1708 8.61719 21.1708 8.33381V8.27415C21.1708 7.53835 20.9695 6.96662 20.5668 6.55895C20.169 6.15128 19.565 5.94744 18.7546 5.94744C17.9144 5.94744 17.2557 6.13139 16.7784 6.49929C16.3011 6.86719 15.9656 7.25994 15.7717 7.67756L14.1012 7.08097C14.3995 6.38494 14.7972 5.84304 15.2944 5.45526C15.7965 5.0625 16.3434 4.78906 16.935 4.63494C17.5316 4.47585 18.1183 4.39631 18.695 4.39631C19.0629 4.39631 19.4854 4.44105 19.9627 4.53054C20.445 4.61506 20.9098 4.79155 21.3572 5.06001C21.8097 5.32848 22.185 5.73366 22.4833 6.27557C22.7816 6.81747 22.9308 7.54332 22.9308 8.45312V16H21.1708V14.4489H21.0813C20.962 14.6974 20.7631 14.9634 20.4847 15.2468C20.2063 15.5302 19.8359 15.7713 19.3736 15.9702C18.9112 16.169 18.3469 16.2685 17.6808 16.2685ZM17.9492 14.6875C18.6452 14.6875 19.2319 14.5508 19.7092 14.2773C20.1914 14.0039 20.5543 13.6509 20.7979 13.2184C21.0465 12.7859 21.1708 12.331 21.1708 11.8537V10.2429C21.0962 10.3324 20.9322 10.4144 20.6786 10.489C20.43 10.5586 20.1417 10.6207 19.8136 10.6754C19.4904 10.7251 19.1747 10.7699 18.8665 10.8097C18.5632 10.8445 18.3171 10.8743 18.1282 10.8991C17.6708 10.9588 17.2433 11.0558 16.8455 11.19C16.4528 11.3192 16.1346 11.5156 15.891 11.7791C15.6523 12.0376 15.533 12.3906 15.533 12.8381C15.533 13.4496 15.7592 13.9119 16.2116 14.2251C16.669 14.5334 17.2482 14.6875 17.9492 14.6875ZM27.903 9.10938V16H26.143V4.54545H27.8433V6.33523H27.9925C28.2609 5.75355 28.6686 5.28622 29.2155 4.93324C29.7623 4.57528 30.4683 4.39631 31.3334 4.39631C32.1089 4.39631 32.7876 4.5554 33.3692 4.87358C33.9509 5.18679 34.4033 5.66406 34.7265 6.3054C35.0496 6.94176 35.2112 7.74716 35.2112 8.72159V16H33.4513V8.84091C33.4513 7.94105 33.2176 7.24006 32.7503 6.73793C32.2829 6.23082 31.6416 5.97727 30.8263 5.97727C30.2645 5.97727 29.7623 6.09908 29.3199 6.34268C28.8824 6.58629 28.5368 6.94176 28.2833 7.40909C28.0297 7.87642 27.903 8.44318 27.903 9.10938ZM38.6658 16V0.727272H40.4258V6.36506H40.5749C40.7042 6.16619 40.8832 5.91264 41.1119 5.6044C41.3455 5.29119 41.6786 5.01278 42.1112 4.76918C42.5487 4.5206 43.1403 4.39631 43.886 4.39631C44.8505 4.39631 45.7006 4.63743 46.4364 5.11967C47.1722 5.60192 47.7464 6.28551 48.1591 7.17045C48.5717 8.0554 48.7781 9.09943 48.7781 10.3026C48.7781 11.5156 48.5717 12.5671 48.1591 13.457C47.7464 14.342 47.1747 15.0281 46.4439 15.5153C45.7131 15.9975 44.8704 16.2386 43.9158 16.2386C43.18 16.2386 42.5909 16.1168 42.1484 15.8732C41.706 15.6246 41.3654 15.3437 41.1268 15.0305C40.8881 14.7124 40.7042 14.4489 40.5749 14.2401H40.3661V16H38.6658ZM40.396 10.2727C40.396 11.1378 40.5227 11.9009 40.7763 12.5621C41.0298 13.2184 41.4002 13.733 41.8874 14.1058C42.3746 14.4737 42.9712 14.6577 43.6772 14.6577C44.413 14.6577 45.027 14.4638 45.5192 14.076C46.0163 13.6832 46.3892 13.1562 46.6378 12.495C46.8913 11.8288 47.0181 11.0881 47.0181 10.2727C47.0181 9.46733 46.8938 8.74148 46.6452 8.09517C46.4016 7.44389 46.0313 6.92933 45.5341 6.55149C45.0419 6.16868 44.4229 5.97727 43.6772 5.97727C42.9613 5.97727 42.3597 6.15874 41.8725 6.52166C41.3853 6.87962 41.0174 7.38175 40.7688 8.02805C40.5202 8.66939 40.396 9.41761 40.396 10.2727ZM54.8409 16.2685C54.1151 16.2685 53.4563 16.1317 52.8647 15.8583C52.2731 15.5799 51.8033 15.1797 51.4553 14.6577C51.1072 14.1307 50.9332 13.4943 50.9332 12.7486C50.9332 12.0923 51.0625 11.5604 51.321 11.1527C51.5795 10.7401 51.9251 10.4169 52.3576 10.1832C52.7901 9.94957 53.2674 9.77557 53.7894 9.66122C54.3164 9.5419 54.8459 9.44744 55.3778 9.37784C56.0739 9.28835 56.6381 9.22124 57.0707 9.17649C57.5082 9.12678 57.8263 9.04474 58.0252 8.9304C58.229 8.81605 58.331 8.61719 58.331 8.33381V8.27415C58.331 7.53835 58.1296 6.96662 57.7269 6.55895C57.3292 6.15128 56.7251 5.94744 55.9148 5.94744C55.0746 5.94744 54.4158 6.13139 53.9386 6.49929C53.4613 6.86719 53.1257 7.25994 52.9318 7.67756L51.2614 7.08097C51.5597 6.38494 51.9574 5.84304 52.4545 5.45526C52.9567 5.0625 53.5036 4.78906 54.0952 4.63494C54.6918 4.47585 55.2784 4.39631 55.8551 4.39631C56.223 4.39631 56.6456 4.44105 57.1229 4.53054C57.6051 4.61506 58.07 4.79155 58.5174 5.06001C58.9698 5.32848 59.3452 5.73366 59.6435 6.27557C59.9418 6.81747 60.0909 7.54332 60.0909 8.45312V16H58.331V14.4489H58.2415C58.1222 14.6974 57.9233 14.9634 57.6449 15.2468C57.3665 15.5302 56.9961 15.7713 56.5337 15.9702C56.0714 16.169 55.5071 16.2685 54.8409 16.2685ZM55.1094 14.6875C55.8054 14.6875 56.392 14.5508 56.8693 14.2773C57.3516 14.0039 57.7145 13.6509 57.9581 13.2184C58.2067 12.7859 58.331 12.331 58.331 11.8537V10.2429C58.2564 10.3324 58.0923 10.4144 57.8388 10.489C57.5902 10.5586 57.3018 10.6207 56.9737 10.6754C56.6506 10.7251 56.3349 10.7699 56.0266 10.8097C55.7234 10.8445 55.4773 10.8743 55.2884 10.8991C54.831 10.9588 54.4034 11.0558 54.0057 11.19C53.6129 11.3192 53.2947 11.5156 53.0511 11.7791C52.8125 12.0376 52.6932 12.3906 52.6932 12.8381C52.6932 13.4496 52.9194 13.9119 53.3718 14.2251C53.8292 14.5334 54.4084 14.6875 55.1094 14.6875ZM65.0631 9.10938V16H63.3032V4.54545H65.0035V6.33523H65.1526C65.4211 5.75355 65.8287 5.28622 66.3756 4.93324C66.9225 4.57528 67.6285 4.39631 68.4935 4.39631C69.2691 4.39631 69.9477 4.5554 70.5294 4.87358C71.1111 5.18679 71.5635 5.66406 71.8866 6.3054C72.2098 6.94176 72.3714 7.74716 72.3714 8.72159V16H70.6114V8.84091C70.6114 7.94105 70.3778 7.24006 69.9104 6.73793C69.4431 6.23082 68.8018 5.97727 67.9864 5.97727C67.4246 5.97727 66.9225 6.09908 66.48 6.34268C66.0425 6.58629 65.697 6.94176 65.4434 7.40909C65.1899 7.87642 65.0631 8.44318 65.0631 9.10938ZM81.7322 16V0.727272H86.8928C88.0909 0.727272 89.0703 0.943536 89.831 1.37606C90.5966 1.80362 91.1634 2.38281 91.5312 3.11364C91.8991 3.84446 92.0831 4.6598 92.0831 5.55966C92.0831 6.45952 91.8991 7.27734 91.5312 8.01314C91.1683 8.74893 90.6065 9.33558 89.8459 9.77308C89.0852 10.2056 88.1108 10.4219 86.9226 10.4219H83.2237V8.78125H86.8629C87.6832 8.78125 88.342 8.63956 88.8391 8.35618C89.3363 8.0728 89.6967 7.68999 89.9205 7.20774C90.1491 6.72053 90.2635 6.17116 90.2635 5.55966C90.2635 4.94815 90.1491 4.40128 89.9205 3.91903C89.6967 3.43679 89.3338 3.05895 88.8317 2.78551C88.3295 2.5071 87.6634 2.3679 86.8331 2.3679H83.5817V16H81.7322ZM94.8237 16V4.54545H96.524V6.27557H96.6433C96.8521 5.70881 97.2299 5.24893 97.7768 4.89595C98.3237 4.54297 98.9402 4.36648 99.6262 4.36648C99.7555 4.36648 99.9171 4.36896 100.111 4.37393C100.305 4.37891 100.452 4.38636 100.551 4.39631V6.18608C100.491 6.17116 100.355 6.14879 100.141 6.11896C99.932 6.08416 99.7108 6.06676 99.4771 6.06676C98.9203 6.06676 98.4231 6.18359 97.9856 6.41726C97.5531 6.64595 97.21 6.96413 96.9565 7.3718C96.7079 7.7745 96.5836 8.23437 96.5836 8.75142V16H94.8237ZM106.942 16.2386C105.908 16.2386 105.001 15.9925 104.22 15.5004C103.444 15.0082 102.838 14.3196 102.4 13.4347C101.968 12.5497 101.752 11.5156 101.752 10.3324C101.752 9.1392 101.968 8.09766 102.4 7.20774C102.838 6.31783 103.444 5.62678 104.22 5.13459C105.001 4.6424 105.908 4.39631 106.942 4.39631C107.976 4.39631 108.881 4.6424 109.656 5.13459C110.437 5.62678 111.044 6.31783 111.476 7.20774C111.914 8.09766 112.132 9.1392 112.132 10.3324C112.132 11.5156 111.914 12.5497 111.476 13.4347C111.044 14.3196 110.437 15.0082 109.656 15.5004C108.881 15.9925 107.976 16.2386 106.942 16.2386ZM106.942 14.6577C107.727 14.6577 108.374 14.4563 108.881 14.0536C109.388 13.6509 109.763 13.1214 110.007 12.4652C110.251 11.8089 110.372 11.098 110.372 10.3324C110.372 9.56676 110.251 8.85334 110.007 8.19212C109.763 7.53089 109.388 6.99645 108.881 6.58878C108.374 6.18111 107.727 5.97727 106.942 5.97727C106.156 5.97727 105.51 6.18111 105.003 6.58878C104.496 6.99645 104.121 7.53089 103.877 8.19212C103.633 8.85334 103.512 9.56676 103.512 10.3324C103.512 11.098 103.633 11.8089 103.877 12.4652C104.121 13.1214 104.496 13.6509 105.003 14.0536C105.51 14.4563 106.156 14.6577 106.942 14.6577ZM114.819 4.54545H116.579V16.8352C116.579 17.5412 116.457 18.1527 116.213 18.6697C115.975 19.1868 115.612 19.587 115.125 19.8704C114.642 20.1538 114.033 20.2955 113.297 20.2955C113.238 20.2955 113.178 20.2955 113.119 20.2955C113.059 20.2955 112.999 20.2955 112.94 20.2955V18.6548C112.999 18.6548 113.054 18.6548 113.104 18.6548C113.153 18.6548 113.208 18.6548 113.268 18.6548C113.805 18.6548 114.197 18.4957 114.446 18.1776C114.695 17.8643 114.819 17.4169 114.819 16.8352V4.54545ZM115.684 2.63636C115.341 2.63636 115.045 2.51953 114.796 2.28587C114.553 2.0522 114.431 1.77131 114.431 1.44318C114.431 1.11506 114.553 0.834162 114.796 0.600497C115.045 0.366832 115.341 0.25 115.684 0.25C116.027 0.25 116.32 0.366832 116.564 0.600497C116.812 0.834162 116.937 1.11506 116.937 1.44318C116.937 1.77131 116.812 2.0522 116.564 2.28587C116.32 2.51953 116.027 2.63636 115.684 2.63636ZM124.605 16.2386C123.501 16.2386 122.549 15.995 121.749 15.5078C120.953 15.0156 120.339 14.3295 119.907 13.4496C119.479 12.5646 119.265 11.5355 119.265 10.3622C119.265 9.18892 119.479 8.15483 119.907 7.25994C120.339 6.36009 120.941 5.65909 121.711 5.15696C122.487 4.64986 123.392 4.39631 124.426 4.39631C125.022 4.39631 125.612 4.49574 126.193 4.6946C126.775 4.89347 127.304 5.21662 127.782 5.66406C128.259 6.10653 128.639 6.69318 128.923 7.42401C129.206 8.15483 129.348 9.05469 129.348 10.1236V10.8693H120.518V9.34801H127.558C127.558 8.7017 127.429 8.125 127.17 7.6179C126.917 7.11079 126.554 6.71058 126.081 6.41726C125.614 6.12393 125.062 5.97727 124.426 5.97727C123.725 5.97727 123.118 6.15128 122.606 6.49929C122.099 6.84233 121.709 7.28977 121.435 7.84162C121.162 8.39347 121.025 8.98508 121.025 9.61648V10.6307C121.025 11.4957 121.174 12.229 121.473 12.8306C121.776 13.4272 122.196 13.8821 122.733 14.1953C123.27 14.5036 123.894 14.6577 124.605 14.6577C125.067 14.6577 125.485 14.593 125.858 14.4638C126.235 14.3295 126.561 14.1307 126.835 13.8672C127.108 13.5987 127.319 13.2656 127.468 12.8679L129.169 13.3452C128.99 13.9219 128.689 14.429 128.266 14.8665C127.844 15.299 127.322 15.6371 126.7 15.8807C126.079 16.1193 125.38 16.2386 124.605 16.2386ZM136.678 16.2386C135.604 16.2386 134.68 15.9851 133.904 15.478C133.129 14.9709 132.532 14.2724 132.114 13.3825C131.697 12.4925 131.488 11.4759 131.488 10.3324C131.488 9.16903 131.702 8.1424 132.129 7.25249C132.562 6.3576 133.163 5.65909 133.934 5.15696C134.71 4.64986 135.614 4.39631 136.648 4.39631C137.454 4.39631 138.18 4.54545 138.826 4.84375C139.472 5.14205 140.002 5.55966 140.414 6.09659C140.827 6.63352 141.083 7.25994 141.183 7.97585H139.423C139.288 7.45383 138.99 6.99148 138.528 6.58878C138.07 6.18111 137.454 5.97727 136.678 5.97727C135.992 5.97727 135.391 6.15625 134.874 6.5142C134.362 6.86719 133.961 7.36683 133.673 8.01314C133.39 8.65447 133.248 9.40767 133.248 10.2727C133.248 11.1577 133.387 11.9283 133.665 12.5845C133.949 13.2408 134.347 13.7504 134.859 14.1133C135.376 14.4762 135.982 14.6577 136.678 14.6577C137.136 14.6577 137.551 14.5781 137.924 14.419C138.297 14.2599 138.612 14.0312 138.871 13.733C139.129 13.4347 139.313 13.0767 139.423 12.6591H141.183C141.083 13.3352 140.837 13.9442 140.444 14.4862C140.056 15.0231 139.542 15.4506 138.901 15.7688C138.264 16.082 137.523 16.2386 136.678 16.2386ZM148.737 4.54545V6.03693H142.801V4.54545H148.737ZM144.531 1.80114H146.291V12.7188C146.291 13.2159 146.363 13.5888 146.507 13.8374C146.656 14.081 146.845 14.245 147.074 14.3295C147.308 14.4091 147.554 14.4489 147.812 14.4489C148.006 14.4489 148.165 14.4389 148.289 14.419C148.414 14.3942 148.513 14.3743 148.588 14.3594L148.946 15.9403C148.826 15.9851 148.66 16.0298 148.446 16.0746C148.232 16.1243 147.961 16.1491 147.633 16.1491C147.136 16.1491 146.649 16.0423 146.172 15.8285C145.699 15.6147 145.306 15.2891 144.993 14.8516C144.685 14.4141 144.531 13.8622 144.531 13.196V1.80114ZM157.529 0.727272H159.737L164.927 13.4048H165.106L170.296 0.727272H172.504V16H170.773V4.39631H170.624L165.852 16H164.181L159.408 4.39631H159.259V16H157.529V0.727272ZM179.344 16.2685C178.618 16.2685 177.959 16.1317 177.368 15.8583C176.776 15.5799 176.306 15.1797 175.958 14.6577C175.61 14.1307 175.436 13.4943 175.436 12.7486C175.436 12.0923 175.565 11.5604 175.824 11.1527C176.082 10.7401 176.428 10.4169 176.861 10.1832C177.293 9.94957 177.77 9.77557 178.292 9.66122C178.819 9.5419 179.349 9.44744 179.881 9.37784C180.577 9.28835 181.141 9.22124 181.574 9.17649C182.011 9.12678 182.329 9.04474 182.528 8.9304C182.732 8.81605 182.834 8.61719 182.834 8.33381V8.27415C182.834 7.53835 182.633 6.96662 182.23 6.55895C181.832 6.15128 181.228 5.94744 180.418 5.94744C179.578 5.94744 178.919 6.13139 178.441 6.49929C177.964 6.86719 177.629 7.25994 177.435 7.67756L175.764 7.08097C176.063 6.38494 176.46 5.84304 176.957 5.45526C177.46 5.0625 178.006 4.78906 178.598 4.63494C179.195 4.47585 179.781 4.39631 180.358 4.39631C180.726 4.39631 181.149 4.44105 181.626 4.53054C182.108 4.61506 182.573 4.79155 183.02 5.06001C183.473 5.32848 183.848 5.73366 184.146 6.27557C184.445 6.81747 184.594 7.54332 184.594 8.45312V16H182.834V14.4489H182.744C182.625 14.6974 182.426 14.9634 182.148 15.2468C181.869 15.5302 181.499 15.7713 181.037 15.9702C180.574 16.169 180.01 16.2685 179.344 16.2685ZM179.612 14.6875C180.308 14.6875 180.895 14.5508 181.372 14.2773C181.854 14.0039 182.217 13.6509 182.461 13.2184C182.71 12.7859 182.834 12.331 182.834 11.8537V10.2429C182.759 10.3324 182.595 10.4144 182.342 10.489C182.093 10.5586 181.805 10.6207 181.477 10.6754C181.153 10.7251 180.838 10.7699 180.53 10.8097C180.226 10.8445 179.98 10.8743 179.791 10.8991C179.334 10.9588 178.906 11.0558 178.509 11.19C178.116 11.3192 177.798 11.5156 177.554 11.7791C177.315 12.0376 177.196 12.3906 177.196 12.8381C177.196 13.4496 177.422 13.9119 177.875 14.2251C178.332 14.5334 178.911 14.6875 179.612 14.6875ZM189.566 9.10938V16H187.806V4.54545H189.506V6.33523H189.656C189.924 5.75355 190.332 5.28622 190.879 4.93324C191.425 4.57528 192.131 4.39631 192.996 4.39631C193.772 4.39631 194.451 4.5554 195.032 4.87358C195.614 5.18679 196.066 5.66406 196.39 6.3054C196.713 6.94176 196.874 7.74716 196.874 8.72159V16H195.114V8.84091C195.114 7.94105 194.881 7.24006 194.413 6.73793C193.946 6.23082 193.305 5.97727 192.489 5.97727C191.928 5.97727 191.425 6.09908 190.983 6.34268C190.545 6.58629 190.2 6.94176 189.946 7.40909C189.693 7.87642 189.566 8.44318 189.566 9.10938ZM203.461 16.2685C202.735 16.2685 202.076 16.1317 201.485 15.8583C200.893 15.5799 200.423 15.1797 200.075 14.6577C199.727 14.1307 199.553 13.4943 199.553 12.7486C199.553 12.0923 199.683 11.5604 199.941 11.1527C200.2 10.7401 200.545 10.4169 200.978 10.1832C201.41 9.94957 201.888 9.77557 202.41 9.66122C202.937 9.5419 203.466 9.44744 203.998 9.37784C204.694 9.28835 205.258 9.22124 205.691 9.17649C206.128 9.12678 206.446 9.04474 206.645 8.9304C206.849 8.81605 206.951 8.61719 206.951 8.33381V8.27415C206.951 7.53835 206.75 6.96662 206.347 6.55895C205.949 6.15128 205.345 5.94744 204.535 5.94744C203.695 5.94744 203.036 6.13139 202.559 6.49929C202.081 6.86719 201.746 7.25994 201.552 7.67756L199.881 7.08097C200.18 6.38494 200.578 5.84304 201.075 5.45526C201.577 5.0625 202.124 4.78906 202.715 4.63494C203.312 4.47585 203.899 4.39631 204.475 4.39631C204.843 4.39631 205.266 4.44105 205.743 4.53054C206.225 4.61506 206.69 4.79155 207.138 5.06001C207.59 5.32848 207.965 5.73366 208.264 6.27557C208.562 6.81747 208.711 7.54332 208.711 8.45312V16H206.951V14.4489H206.862C206.742 14.6974 206.543 14.9634 206.265 15.2468C205.987 15.5302 205.616 15.7713 205.154 15.9702C204.691 16.169 204.127 16.2685 203.461 16.2685ZM203.729 14.6875C204.426 14.6875 205.012 14.5508 205.489 14.2773C205.972 14.0039 206.335 13.6509 206.578 13.2184C206.827 12.7859 206.951 12.331 206.951 11.8537V10.2429C206.877 10.3324 206.712 10.4144 206.459 10.489C206.21 10.5586 205.922 10.6207 205.594 10.6754C205.271 10.7251 204.955 10.7699 204.647 10.8097C204.343 10.8445 204.097 10.8743 203.908 10.8991C203.451 10.9588 203.024 11.0558 202.626 11.19C202.233 11.3192 201.915 11.5156 201.671 11.7791C201.433 12.0376 201.313 12.3906 201.313 12.8381C201.313 13.4496 201.54 13.9119 201.992 14.2251C202.449 14.5334 203.028 14.6875 203.729 14.6875ZM216.547 20.5341C215.697 20.5341 214.966 20.4247 214.354 20.206C213.743 19.9922 213.233 19.7088 212.826 19.3558C212.423 19.0078 212.102 18.6349 211.864 18.2372L213.266 17.2528C213.425 17.4616 213.626 17.7003 213.87 17.9688C214.113 18.2422 214.446 18.4783 214.869 18.6772C215.297 18.881 215.856 18.983 216.547 18.983C217.472 18.983 218.235 18.7592 218.836 18.3118C219.438 17.8643 219.739 17.1634 219.739 16.2088V13.8821H219.589C219.46 14.0909 219.276 14.3494 219.038 14.6577C218.804 14.9609 218.466 15.2319 218.023 15.4705C217.586 15.7042 216.994 15.821 216.249 15.821C215.324 15.821 214.494 15.6023 213.758 15.1648C213.027 14.7273 212.448 14.0909 212.02 13.2557C211.598 12.4205 211.386 11.4062 211.386 10.2131C211.386 9.03977 211.593 8.01811 212.005 7.14808C212.418 6.27308 212.992 5.59695 213.728 5.11967C214.464 4.63743 215.314 4.39631 216.278 4.39631C217.024 4.39631 217.616 4.5206 218.053 4.76918C218.496 5.01278 218.834 5.29119 219.067 5.6044C219.306 5.91264 219.49 6.16619 219.619 6.36506H219.798V4.54545H221.499V16.3281C221.499 17.3125 221.275 18.1129 220.827 18.7294C220.385 19.3509 219.788 19.8058 219.038 20.0941C218.292 20.3874 217.462 20.5341 216.547 20.5341ZM216.487 14.2401C217.193 14.2401 217.79 14.0785 218.277 13.7553C218.764 13.4322 219.135 12.9673 219.388 12.3608C219.642 11.7543 219.768 11.0284 219.768 10.1832C219.768 9.35795 219.644 8.62962 219.396 7.99822C219.147 7.36683 218.779 6.87216 218.292 6.5142C217.805 6.15625 217.203 5.97727 216.487 5.97727C215.741 5.97727 215.12 6.16619 214.623 6.54403C214.131 6.92187 213.76 7.42898 213.512 8.06534C213.268 8.7017 213.146 9.40767 213.146 10.1832C213.146 10.9787 213.271 11.6822 213.519 12.2937C213.773 12.9002 214.146 13.3775 214.638 13.7255C215.135 14.0685 215.751 14.2401 216.487 14.2401ZM229.523 16.2386C228.419 16.2386 227.467 15.995 226.667 15.5078C225.871 15.0156 225.257 14.3295 224.825 13.4496C224.397 12.5646 224.183 11.5355 224.183 10.3622C224.183 9.18892 224.397 8.15483 224.825 7.25994C225.257 6.36009 225.859 5.65909 226.629 5.15696C227.405 4.64986 228.31 4.39631 229.344 4.39631C229.94 4.39631 230.529 4.49574 231.111 4.6946C231.693 4.89347 232.222 5.21662 232.7 5.66406C233.177 6.10653 233.557 6.69318 233.841 7.42401C234.124 8.15483 234.266 9.05469 234.266 10.1236V10.8693H225.436V9.34801H232.476C232.476 8.7017 232.347 8.125 232.088 7.6179C231.835 7.11079 231.472 6.71058 230.999 6.41726C230.532 6.12393 229.98 5.97727 229.344 5.97727C228.643 5.97727 228.036 6.15128 227.524 6.49929C227.017 6.84233 226.627 7.28977 226.353 7.84162C226.08 8.39347 225.943 8.98508 225.943 9.61648V10.6307C225.943 11.4957 226.092 12.229 226.391 12.8306C226.694 13.4272 227.114 13.8821 227.651 14.1953C228.188 14.5036 228.812 14.6577 229.523 14.6577C229.985 14.6577 230.403 14.593 230.776 14.4638C231.153 14.3295 231.479 14.1307 231.752 13.8672C232.026 13.5987 232.237 13.2656 232.386 12.8679L234.087 13.3452C233.908 13.9219 233.607 14.429 233.184 14.8665C232.762 15.299 232.24 15.6371 231.618 15.8807C230.997 16.1193 230.298 16.2386 229.523 16.2386ZM236.943 16V4.54545H238.643V6.33523H238.792C239.031 5.72372 239.416 5.24893 239.948 4.91087C240.48 4.56783 241.119 4.39631 241.865 4.39631C242.62 4.39631 243.249 4.56783 243.751 4.91087C244.259 5.24893 244.654 5.72372 244.937 6.33523H245.056C245.35 5.74361 245.79 5.27379 246.376 4.92578C246.963 4.5728 247.667 4.39631 248.487 4.39631C249.511 4.39631 250.349 4.71697 251 5.35831C251.651 5.99467 251.977 6.98651 251.977 8.33381V16H250.217V8.33381C250.217 7.48864 249.986 6.88459 249.523 6.52166C249.061 6.15874 248.517 5.97727 247.89 5.97727C247.085 5.97727 246.461 6.22088 246.018 6.7081C245.576 7.19034 245.355 7.80185 245.355 8.54261V16H243.565V8.15483C243.565 7.50355 243.354 6.97905 242.931 6.58132C242.509 6.17862 241.964 5.97727 241.298 5.97727C240.841 5.97727 240.413 6.09908 240.015 6.34268C239.623 6.58629 239.304 6.92436 239.061 7.35689C238.822 7.78445 238.703 8.27912 238.703 8.84091V16H236.943ZM259.997 16.2386C258.894 16.2386 257.942 15.995 257.141 15.5078C256.346 15.0156 255.732 14.3295 255.299 13.4496C254.872 12.5646 254.658 11.5355 254.658 10.3622C254.658 9.18892 254.872 8.15483 255.299 7.25994C255.732 6.36009 256.333 5.65909 257.104 5.15696C257.879 4.64986 258.784 4.39631 259.818 4.39631C260.415 4.39631 261.004 4.49574 261.586 4.6946C262.167 4.89347 262.697 5.21662 263.174 5.66406C263.651 6.10653 264.032 6.69318 264.315 7.42401C264.599 8.15483 264.74 9.05469 264.74 10.1236V10.8693H255.911V9.34801H262.95C262.95 8.7017 262.821 8.125 262.563 7.6179C262.309 7.11079 261.946 6.71058 261.474 6.41726C261.007 6.12393 260.455 5.97727 259.818 5.97727C259.117 5.97727 258.511 6.15128 257.999 6.49929C257.492 6.84233 257.101 7.28977 256.828 7.84162C256.555 8.39347 256.418 8.98508 256.418 9.61648V10.6307C256.418 11.4957 256.567 12.229 256.865 12.8306C257.169 13.4272 257.589 13.8821 258.126 14.1953C258.662 14.5036 259.286 14.6577 259.997 14.6577C260.46 14.6577 260.877 14.593 261.25 14.4638C261.628 14.3295 261.954 14.1307 262.227 13.8672C262.501 13.5987 262.712 13.2656 262.861 12.8679L264.561 13.3452C264.382 13.9219 264.081 14.429 263.659 14.8665C263.236 15.299 262.714 15.6371 262.093 15.8807C261.471 16.1193 260.773 16.2386 259.997 16.2386ZM269.177 9.10938V16H267.417V4.54545H269.118V6.33523H269.267C269.535 5.75355 269.943 5.28622 270.49 4.93324C271.037 4.57528 271.743 4.39631 272.608 4.39631C273.383 4.39631 274.062 4.5554 274.644 4.87358C275.225 5.18679 275.678 5.66406 276.001 6.3054C276.324 6.94176 276.486 7.74716 276.486 8.72159V16H274.726V8.84091C274.726 7.94105 274.492 7.24006 274.025 6.73793C273.557 6.23082 272.916 5.97727 272.101 5.97727C271.539 5.97727 271.037 6.09908 270.594 6.34268C270.157 6.58629 269.811 6.94176 269.558 7.40909C269.304 7.87642 269.177 8.44318 269.177 9.10938ZM284.683 4.54545V6.03693H278.747V4.54545H284.683ZM280.477 1.80114H282.237V12.7188C282.237 13.2159 282.309 13.5888 282.453 13.8374C282.603 14.081 282.791 14.245 283.02 14.3295C283.254 14.4091 283.5 14.4489 283.758 14.4489C283.952 14.4489 284.111 14.4389 284.236 14.419C284.36 14.3942 284.459 14.3743 284.534 14.3594L284.892 15.9403C284.773 15.9851 284.606 16.0298 284.392 16.0746C284.179 16.1243 283.908 16.1491 283.579 16.1491C283.082 16.1491 282.595 16.0423 282.118 15.8285C281.646 15.6147 281.253 15.2891 280.94 14.8516C280.631 14.4141 280.477 13.8622 280.477 13.196V1.80114ZM292.64 2.3679V0.727272H304.095V2.3679H299.292V16H297.443V2.3679H292.64ZM309.703 16.2386C308.669 16.2386 307.761 15.9925 306.981 15.5004C306.205 15.0082 305.599 14.3196 305.161 13.4347C304.729 12.5497 304.512 11.5156 304.512 10.3324C304.512 9.1392 304.729 8.09766 305.161 7.20774C305.599 6.31783 306.205 5.62678 306.981 5.13459C307.761 4.6424 308.669 4.39631 309.703 4.39631C310.737 4.39631 311.642 4.6424 312.417 5.13459C313.198 5.62678 313.804 6.31783 314.237 7.20774C314.674 8.09766 314.893 9.1392 314.893 10.3324C314.893 11.5156 314.674 12.5497 314.237 13.4347C313.804 14.3196 313.198 15.0082 312.417 15.5004C311.642 15.9925 310.737 16.2386 309.703 16.2386ZM309.703 14.6577C310.488 14.6577 311.134 14.4563 311.642 14.0536C312.149 13.6509 312.524 13.1214 312.768 12.4652C313.011 11.8089 313.133 11.098 313.133 10.3324C313.133 9.56676 313.011 8.85334 312.768 8.19212C312.524 7.53089 312.149 6.99645 311.642 6.58878C311.134 6.18111 310.488 5.97727 309.703 5.97727C308.917 5.97727 308.271 6.18111 307.764 6.58878C307.257 6.99645 306.881 7.53089 306.638 8.19212C306.394 8.85334 306.272 9.56676 306.272 10.3324C306.272 11.098 306.394 11.8089 306.638 12.4652C306.881 13.1214 307.257 13.6509 307.764 14.0536C308.271 14.4563 308.917 14.6577 309.703 14.6577ZM322.233 16.2386C321.199 16.2386 320.292 15.9925 319.511 15.5004C318.735 15.0082 318.129 14.3196 317.691 13.4347C317.259 12.5497 317.043 11.5156 317.043 10.3324C317.043 9.1392 317.259 8.09766 317.691 7.20774C318.129 6.31783 318.735 5.62678 319.511 5.13459C320.292 4.6424 321.199 4.39631 322.233 4.39631C323.267 4.39631 324.172 4.6424 324.947 5.13459C325.728 5.62678 326.335 6.31783 326.767 7.20774C327.205 8.09766 327.423 9.1392 327.423 10.3324C327.423 11.5156 327.205 12.5497 326.767 13.4347C326.335 14.3196 325.728 15.0082 324.947 15.5004C324.172 15.9925 323.267 16.2386 322.233 16.2386ZM322.233 14.6577C323.018 14.6577 323.665 14.4563 324.172 14.0536C324.679 13.6509 325.054 13.1214 325.298 12.4652C325.542 11.8089 325.663 11.098 325.663 10.3324C325.663 9.56676 325.542 8.85334 325.298 8.19212C325.054 7.53089 324.679 6.99645 324.172 6.58878C323.665 6.18111 323.018 5.97727 322.233 5.97727C321.447 5.97727 320.801 6.18111 320.294 6.58878C319.787 6.99645 319.412 7.53089 319.168 8.19212C318.924 8.85334 318.803 9.56676 318.803 10.3324C318.803 11.098 318.924 11.8089 319.168 12.4652C319.412 13.1214 319.787 13.6509 320.294 14.0536C320.801 14.4563 321.447 14.6577 322.233 14.6577ZM331.87 0.727272V16H330.11V0.727272H331.87Z" fill="black"/>
</svg>
